<mxfile host="app.diagrams.net" modified="2024-05-22T09:09:09.852Z" agent="Mozilla/5.0 (Windows NT 10.0; Win64; x64) AppleWebKit/537.36 (KHTML, like Gecko) Chrome/124.0.0.0 Safari/537.36" etag="6c_rKizMJ16bDRj178pF" version="24.4.4" type="github">
  <diagram name="Page-1" id="hYWnZapTqX6rQIh3AX-N">
    <mxGraphModel dx="1714" dy="500" grid="1" gridSize="10" guides="1" tooltips="1" connect="1" arrows="1" fold="1" page="1" pageScale="1" pageWidth="850" pageHeight="1100" math="0" shadow="0">
      <root>
        <mxCell id="0" />
        <mxCell id="1" parent="0" />
        <mxCell id="hnI3a69rsxGzcbUu10C9-1" value="AssignmentManager" style="swimlane;fontStyle=1;align=center;verticalAlign=top;childLayout=stackLayout;horizontal=1;startSize=26;horizontalStack=0;resizeParent=1;resizeParentMax=0;resizeLast=0;collapsible=1;marginBottom=0;whiteSpace=wrap;html=1;" vertex="1" parent="1">
          <mxGeometry x="340" y="210" width="210" height="140" as="geometry">
            <mxRectangle x="340" y="210" width="150" height="30" as="alternateBounds" />
          </mxGeometry>
        </mxCell>
        <mxCell id="hnI3a69rsxGzcbUu10C9-2" value="- assignments: List&amp;lt;String&amp;gt;" style="text;strokeColor=none;fillColor=none;align=left;verticalAlign=top;spacingLeft=4;spacingRight=4;overflow=hidden;rotatable=0;points=[[0,0.5],[1,0.5]];portConstraint=eastwest;whiteSpace=wrap;html=1;" vertex="1" parent="hnI3a69rsxGzcbUu10C9-1">
          <mxGeometry y="26" width="210" height="26" as="geometry" />
        </mxCell>
        <mxCell id="hnI3a69rsxGzcbUu10C9-3" value="" style="line;strokeWidth=1;fillColor=none;align=left;verticalAlign=middle;spacingTop=-1;spacingLeft=3;spacingRight=3;rotatable=0;labelPosition=right;points=[];portConstraint=eastwest;strokeColor=inherit;" vertex="1" parent="hnI3a69rsxGzcbUu10C9-1">
          <mxGeometry y="52" width="210" height="8" as="geometry" />
        </mxCell>
        <mxCell id="hnI3a69rsxGzcbUu10C9-4" value="+ addAssignment(Scanner): void&lt;div&gt;+ listAssignment()&lt;span style=&quot;background-color: initial;&quot;&gt;: void&lt;/span&gt;&lt;/div&gt;&lt;div&gt;+ upfateAssignment(Scanner)&lt;span style=&quot;background-color: initial;&quot;&gt;: void&lt;/span&gt;&lt;/div&gt;&lt;div&gt;+ deleteAssignment(Scanner)&lt;span style=&quot;background-color: initial;&quot;&gt;: void&lt;/span&gt;&lt;/div&gt;" style="text;strokeColor=none;fillColor=none;align=left;verticalAlign=top;spacingLeft=4;spacingRight=4;overflow=hidden;rotatable=0;points=[[0,0.5],[1,0.5]];portConstraint=eastwest;whiteSpace=wrap;html=1;" vertex="1" parent="hnI3a69rsxGzcbUu10C9-1">
          <mxGeometry y="60" width="210" height="80" as="geometry" />
        </mxCell>
        <mxCell id="hnI3a69rsxGzcbUu10C9-5" value="AttendanceManager" style="swimlane;fontStyle=1;align=center;verticalAlign=top;childLayout=stackLayout;horizontal=1;startSize=26;horizontalStack=0;resizeParent=1;resizeParentMax=0;resizeLast=0;collapsible=1;marginBottom=0;whiteSpace=wrap;html=1;" vertex="1" parent="1">
          <mxGeometry x="560" y="210" width="230" height="140" as="geometry" />
        </mxCell>
        <mxCell id="hnI3a69rsxGzcbUu10C9-6" value="- attandanceRecords: List&amp;lt;String&amp;gt;" style="text;strokeColor=none;fillColor=none;align=left;verticalAlign=top;spacingLeft=4;spacingRight=4;overflow=hidden;rotatable=0;points=[[0,0.5],[1,0.5]];portConstraint=eastwest;whiteSpace=wrap;html=1;" vertex="1" parent="hnI3a69rsxGzcbUu10C9-5">
          <mxGeometry y="26" width="230" height="26" as="geometry" />
        </mxCell>
        <mxCell id="hnI3a69rsxGzcbUu10C9-7" value="" style="line;strokeWidth=1;fillColor=none;align=left;verticalAlign=middle;spacingTop=-1;spacingLeft=3;spacingRight=3;rotatable=0;labelPosition=right;points=[];portConstraint=eastwest;strokeColor=inherit;" vertex="1" parent="hnI3a69rsxGzcbUu10C9-5">
          <mxGeometry y="52" width="230" height="8" as="geometry" />
        </mxCell>
        <mxCell id="hnI3a69rsxGzcbUu10C9-8" value="+ addAttendance(Scanner): void&lt;div&gt;+ listAttendance()&lt;span style=&quot;background-color: initial;&quot;&gt;: void&lt;/span&gt;&lt;/div&gt;&lt;div&gt;+ updateAttendance(Scanner)&lt;span style=&quot;background-color: initial;&quot;&gt;: void&lt;/span&gt;&lt;/div&gt;&lt;div&gt;+ deleteAttendance(Scanner)&lt;span style=&quot;background-color: initial;&quot;&gt;: void&lt;/span&gt;&lt;/div&gt;&lt;div&gt;&lt;br&gt;&lt;/div&gt;" style="text;strokeColor=none;fillColor=none;align=left;verticalAlign=top;spacingLeft=4;spacingRight=4;overflow=hidden;rotatable=0;points=[[0,0.5],[1,0.5]];portConstraint=eastwest;whiteSpace=wrap;html=1;" vertex="1" parent="hnI3a69rsxGzcbUu10C9-5">
          <mxGeometry y="60" width="230" height="80" as="geometry" />
        </mxCell>
        <mxCell id="hnI3a69rsxGzcbUu10C9-9" value="ClassManager" style="swimlane;fontStyle=1;align=center;verticalAlign=top;childLayout=stackLayout;horizontal=1;startSize=26;horizontalStack=0;resizeParent=1;resizeParentMax=0;resizeLast=0;collapsible=1;marginBottom=0;whiteSpace=wrap;html=1;" vertex="1" parent="1">
          <mxGeometry x="330" y="390" width="240" height="140" as="geometry" />
        </mxCell>
        <mxCell id="hnI3a69rsxGzcbUu10C9-10" value="- classes: List&amp;lt;String&amp;gt;" style="text;strokeColor=none;fillColor=none;align=left;verticalAlign=top;spacingLeft=4;spacingRight=4;overflow=hidden;rotatable=0;points=[[0,0.5],[1,0.5]];portConstraint=eastwest;whiteSpace=wrap;html=1;" vertex="1" parent="hnI3a69rsxGzcbUu10C9-9">
          <mxGeometry y="26" width="240" height="26" as="geometry" />
        </mxCell>
        <mxCell id="hnI3a69rsxGzcbUu10C9-11" value="" style="line;strokeWidth=1;fillColor=none;align=left;verticalAlign=middle;spacingTop=-1;spacingLeft=3;spacingRight=3;rotatable=0;labelPosition=right;points=[];portConstraint=eastwest;strokeColor=inherit;" vertex="1" parent="hnI3a69rsxGzcbUu10C9-9">
          <mxGeometry y="52" width="240" height="8" as="geometry" />
        </mxCell>
        <mxCell id="hnI3a69rsxGzcbUu10C9-12" value="&lt;div&gt;+ createClass(Scanner)&lt;span style=&quot;background-color: initial;&quot;&gt;: void&lt;/span&gt;&lt;/div&gt;&lt;div&gt;+ listClasses()&lt;span style=&quot;background-color: initial;&quot;&gt;: void&lt;/span&gt;&lt;/div&gt;&lt;div&gt;+ updateClass(Scanner)&lt;span style=&quot;background-color: initial;&quot;&gt;: void&lt;/span&gt;&lt;/div&gt;&lt;div&gt;+ deleteClass(Scanner)&lt;span style=&quot;background-color: initial;&quot;&gt;: void&lt;/span&gt;&lt;/div&gt;&lt;div&gt;&lt;br&gt;&lt;/div&gt;" style="text;strokeColor=none;fillColor=none;align=left;verticalAlign=top;spacingLeft=4;spacingRight=4;overflow=hidden;rotatable=0;points=[[0,0.5],[1,0.5]];portConstraint=eastwest;whiteSpace=wrap;html=1;" vertex="1" parent="hnI3a69rsxGzcbUu10C9-9">
          <mxGeometry y="60" width="240" height="80" as="geometry" />
        </mxCell>
        <mxCell id="hnI3a69rsxGzcbUu10C9-13" value="CoachingCenterManagement" style="swimlane;fontStyle=1;align=center;verticalAlign=top;childLayout=stackLayout;horizontal=1;startSize=26;horizontalStack=0;resizeParent=1;resizeParentMax=0;resizeLast=0;collapsible=1;marginBottom=0;whiteSpace=wrap;html=1;" vertex="1" parent="1">
          <mxGeometry x="590" y="390" width="260" height="370" as="geometry" />
        </mxCell>
        <mxCell id="hnI3a69rsxGzcbUu10C9-14" value="&lt;div&gt;- scanner&lt;span style=&quot;background-color: initial;&quot;&gt;:&amp;nbsp;&lt;/span&gt;&lt;span style=&quot;background-color: initial;&quot;&gt;Scanner&lt;/span&gt;&lt;span style=&quot;background-color: initial;&quot;&gt;&amp;nbsp;&lt;/span&gt;&lt;/div&gt;&lt;div&gt;- userManager:&amp;nbsp;&lt;span style=&quot;background-color: initial;&quot;&gt;UserManager&lt;/span&gt;&lt;/div&gt;&lt;div&gt;- assignmentManager:&amp;nbsp;&lt;span style=&quot;background-color: initial;&quot;&gt;&amp;nbsp;&lt;/span&gt;&lt;span style=&quot;background-color: initial;&quot;&gt;AssignmentManager&lt;/span&gt;&lt;/div&gt;&lt;div&gt;- classManager:&amp;nbsp;&lt;span style=&quot;background-color: initial;&quot;&gt;&amp;nbsp;&lt;/span&gt;&lt;span style=&quot;background-color: initial;&quot;&gt;ClassManager&lt;/span&gt;&lt;/div&gt;&lt;div&gt;- attendanceManager:&lt;span style=&quot;background-color: initial;&quot;&gt;&amp;nbsp;&lt;/span&gt;&lt;span style=&quot;background-color: initial;&quot;&gt;AttendanceManager&lt;/span&gt;&lt;/div&gt;&lt;div&gt;- duesManager:&lt;span style=&quot;background-color: initial;&quot;&gt;&amp;nbsp;&lt;/span&gt;&lt;span style=&quot;background-color: initial;&quot;&gt;DuesManager&lt;/span&gt;&lt;/div&gt;&lt;div&gt;- transactionManager:&lt;span style=&quot;background-color: initial;&quot;&gt;&amp;nbsp;&lt;/span&gt;&lt;span style=&quot;background-color: initial;&quot;&gt;TransactionManager&lt;/span&gt;&lt;/div&gt;&lt;div&gt;- feesManager:&amp;nbsp;&lt;span style=&quot;background-color: initial;&quot;&gt;FeesManager&lt;/span&gt;&lt;/div&gt;&lt;div&gt;- gradeManager:&amp;nbsp;&lt;span style=&quot;background-color: initial;&quot;&gt;&amp;nbsp;&lt;/span&gt;&lt;span style=&quot;background-color: initial;&quot;&gt;GradeManager&lt;/span&gt;&lt;/div&gt;&lt;div&gt;- tutorManager:&amp;nbsp;&lt;span style=&quot;background-color: initial;&quot;&gt;&amp;nbsp;&lt;/span&gt;&lt;span style=&quot;background-color: initial;&quot;&gt;TutorManager&lt;/span&gt;&lt;/div&gt;&lt;div&gt;- currentUser:&lt;span style=&quot;background-color: initial;&quot;&gt;&amp;nbsp;&lt;/span&gt;&lt;span style=&quot;background-color: initial;&quot;&gt;User&lt;/span&gt;&lt;span style=&quot;background-color: initial;&quot;&gt;&amp;nbsp;&lt;/span&gt;&lt;/div&gt;" style="text;strokeColor=none;fillColor=none;align=left;verticalAlign=top;spacingLeft=4;spacingRight=4;overflow=hidden;rotatable=0;points=[[0,0.5],[1,0.5]];portConstraint=eastwest;whiteSpace=wrap;html=1;" vertex="1" parent="hnI3a69rsxGzcbUu10C9-13">
          <mxGeometry y="26" width="260" height="194" as="geometry" />
        </mxCell>
        <mxCell id="hnI3a69rsxGzcbUu10C9-15" value="" style="line;strokeWidth=1;fillColor=none;align=left;verticalAlign=middle;spacingTop=-1;spacingLeft=3;spacingRight=3;rotatable=0;labelPosition=right;points=[];portConstraint=eastwest;strokeColor=inherit;" vertex="1" parent="hnI3a69rsxGzcbUu10C9-13">
          <mxGeometry y="220" width="260" height="8" as="geometry" />
        </mxCell>
        <mxCell id="hnI3a69rsxGzcbUu10C9-16" value="&lt;div&gt;+ start(): void&lt;/div&gt;&lt;div&gt;+&amp;nbsp;handleUserSignup(): void&lt;/div&gt;&lt;div&gt;+&amp;nbsp;handleUserLogin(): void&lt;/div&gt;&lt;div&gt;+&amp;nbsp;handleUserOptions(): void&lt;/div&gt;&lt;div&gt;+&amp;nbsp;viewPersonalInformation(): void&lt;/div&gt;&lt;div&gt;+&amp;nbsp;upgradeProfile(): void&lt;/div&gt;&lt;div&gt;+&amp;nbsp;handleAdminSignup(): void&lt;/div&gt;&lt;div&gt;+&amp;nbsp;handleAdminLogin(): void&lt;/div&gt;&lt;div&gt;+&amp;nbsp;handleAdminOptions(): void&lt;/div&gt;" style="text;strokeColor=none;fillColor=none;align=left;verticalAlign=top;spacingLeft=4;spacingRight=4;overflow=hidden;rotatable=0;points=[[0,0.5],[1,0.5]];portConstraint=eastwest;whiteSpace=wrap;html=1;" vertex="1" parent="hnI3a69rsxGzcbUu10C9-13">
          <mxGeometry y="228" width="260" height="142" as="geometry" />
        </mxCell>
        <mxCell id="hnI3a69rsxGzcbUu10C9-17" value="DuesManager" style="swimlane;fontStyle=1;align=center;verticalAlign=top;childLayout=stackLayout;horizontal=1;startSize=26;horizontalStack=0;resizeParent=1;resizeParentMax=0;resizeLast=0;collapsible=1;marginBottom=0;whiteSpace=wrap;html=1;" vertex="1" parent="1">
          <mxGeometry x="330" y="570" width="240" height="140" as="geometry" />
        </mxCell>
        <mxCell id="hnI3a69rsxGzcbUu10C9-18" value="- dues: List&amp;lt;String, double&amp;gt;" style="text;strokeColor=none;fillColor=none;align=left;verticalAlign=top;spacingLeft=4;spacingRight=4;overflow=hidden;rotatable=0;points=[[0,0.5],[1,0.5]];portConstraint=eastwest;whiteSpace=wrap;html=1;" vertex="1" parent="hnI3a69rsxGzcbUu10C9-17">
          <mxGeometry y="26" width="240" height="26" as="geometry" />
        </mxCell>
        <mxCell id="hnI3a69rsxGzcbUu10C9-19" value="" style="line;strokeWidth=1;fillColor=none;align=left;verticalAlign=middle;spacingTop=-1;spacingLeft=3;spacingRight=3;rotatable=0;labelPosition=right;points=[];portConstraint=eastwest;strokeColor=inherit;" vertex="1" parent="hnI3a69rsxGzcbUu10C9-17">
          <mxGeometry y="52" width="240" height="8" as="geometry" />
        </mxCell>
        <mxCell id="hnI3a69rsxGzcbUu10C9-20" value="&lt;div&gt;+&amp;nbsp;addDue(Scanner)&lt;span style=&quot;background-color: initial;&quot;&gt;: void&lt;/span&gt;&lt;/div&gt;&lt;div&gt;+&amp;nbsp;listDues()&lt;span style=&quot;background-color: initial;&quot;&gt;: void&lt;/span&gt;&lt;/div&gt;&lt;div&gt;+&amp;nbsp;updateDue(Scanner)&lt;span style=&quot;background-color: initial;&quot;&gt;: void&lt;/span&gt;&lt;/div&gt;&lt;div&gt;+&amp;nbsp;deleteDue(Scanner)&lt;span style=&quot;background-color: initial;&quot;&gt;: void&lt;/span&gt;&lt;/div&gt;" style="text;strokeColor=none;fillColor=none;align=left;verticalAlign=top;spacingLeft=4;spacingRight=4;overflow=hidden;rotatable=0;points=[[0,0.5],[1,0.5]];portConstraint=eastwest;whiteSpace=wrap;html=1;" vertex="1" parent="hnI3a69rsxGzcbUu10C9-17">
          <mxGeometry y="60" width="240" height="80" as="geometry" />
        </mxCell>
        <mxCell id="hnI3a69rsxGzcbUu10C9-21" value="FeesManager" style="swimlane;fontStyle=1;align=center;verticalAlign=top;childLayout=stackLayout;horizontal=1;startSize=26;horizontalStack=0;resizeParent=1;resizeParentMax=0;resizeLast=0;collapsible=1;marginBottom=0;whiteSpace=wrap;html=1;" vertex="1" parent="1">
          <mxGeometry x="330" y="740" width="240" height="140" as="geometry" />
        </mxCell>
        <mxCell id="hnI3a69rsxGzcbUu10C9-22" value="- fees: List&amp;lt;String, double&amp;gt;" style="text;strokeColor=none;fillColor=none;align=left;verticalAlign=top;spacingLeft=4;spacingRight=4;overflow=hidden;rotatable=0;points=[[0,0.5],[1,0.5]];portConstraint=eastwest;whiteSpace=wrap;html=1;" vertex="1" parent="hnI3a69rsxGzcbUu10C9-21">
          <mxGeometry y="26" width="240" height="26" as="geometry" />
        </mxCell>
        <mxCell id="hnI3a69rsxGzcbUu10C9-23" value="" style="line;strokeWidth=1;fillColor=none;align=left;verticalAlign=middle;spacingTop=-1;spacingLeft=3;spacingRight=3;rotatable=0;labelPosition=right;points=[];portConstraint=eastwest;strokeColor=inherit;" vertex="1" parent="hnI3a69rsxGzcbUu10C9-21">
          <mxGeometry y="52" width="240" height="8" as="geometry" />
        </mxCell>
        <mxCell id="hnI3a69rsxGzcbUu10C9-24" value="&lt;div&gt;+&amp;nbsp;addFee(Scanner)&lt;span style=&quot;background-color: initial;&quot;&gt;: void&lt;/span&gt;&lt;/div&gt;&lt;div&gt;+&amp;nbsp;listFees()&lt;span style=&quot;background-color: initial;&quot;&gt;: void&lt;/span&gt;&lt;/div&gt;&lt;div&gt;+&amp;nbsp;updateFee(Scanner)&lt;span style=&quot;background-color: initial;&quot;&gt;: void&lt;/span&gt;&lt;/div&gt;&lt;div&gt;+&amp;nbsp;deleteFee(Scanner)&lt;span style=&quot;background-color: initial;&quot;&gt;: void&lt;/span&gt;&lt;/div&gt;" style="text;strokeColor=none;fillColor=none;align=left;verticalAlign=top;spacingLeft=4;spacingRight=4;overflow=hidden;rotatable=0;points=[[0,0.5],[1,0.5]];portConstraint=eastwest;whiteSpace=wrap;html=1;" vertex="1" parent="hnI3a69rsxGzcbUu10C9-21">
          <mxGeometry y="60" width="240" height="80" as="geometry" />
        </mxCell>
        <mxCell id="hnI3a69rsxGzcbUu10C9-25" value="Student" style="swimlane;fontStyle=1;align=center;verticalAlign=top;childLayout=stackLayout;horizontal=1;startSize=26;horizontalStack=0;resizeParent=1;resizeParentMax=0;resizeLast=0;collapsible=1;marginBottom=0;whiteSpace=wrap;html=1;" vertex="1" parent="1">
          <mxGeometry x="50" y="210" width="240" height="260" as="geometry" />
        </mxCell>
        <mxCell id="hnI3a69rsxGzcbUu10C9-26" value="&lt;div&gt;- id:&lt;span style=&quot;background-color: initial;&quot;&gt;&amp;nbsp;&lt;/span&gt;&lt;span style=&quot;background-color: initial;&quot;&gt;String&lt;/span&gt;&lt;span style=&quot;background-color: initial;&quot;&gt;&amp;nbsp;&lt;/span&gt;&lt;/div&gt;&lt;div&gt;- name:&lt;span style=&quot;background-color: initial;&quot;&gt;&amp;nbsp;&lt;/span&gt;&lt;span style=&quot;background-color: initial;&quot;&gt;String&lt;/span&gt;&lt;span style=&quot;background-color: initial;&quot;&gt;&amp;nbsp;&lt;/span&gt;&lt;/div&gt;&lt;div&gt;- className:&lt;span style=&quot;background-color: initial;&quot;&gt;&amp;nbsp;&lt;/span&gt;&lt;span style=&quot;background-color: initial;&quot;&gt;String&lt;/span&gt;&lt;span style=&quot;background-color: initial;&quot;&gt;&amp;nbsp;&lt;/span&gt;&lt;/div&gt;&lt;div&gt;- section:&lt;span style=&quot;background-color: initial;&quot;&gt;&amp;nbsp;&lt;/span&gt;&lt;span style=&quot;background-color: initial;&quot;&gt;String&lt;/span&gt;&lt;span style=&quot;background-color: initial;&quot;&gt;&amp;nbsp;&lt;/span&gt;&lt;/div&gt;" style="text;strokeColor=none;fillColor=none;align=left;verticalAlign=top;spacingLeft=4;spacingRight=4;overflow=hidden;rotatable=0;points=[[0,0.5],[1,0.5]];portConstraint=eastwest;whiteSpace=wrap;html=1;" vertex="1" parent="hnI3a69rsxGzcbUu10C9-25">
          <mxGeometry y="26" width="240" height="74" as="geometry" />
        </mxCell>
        <mxCell id="hnI3a69rsxGzcbUu10C9-27" value="" style="line;strokeWidth=1;fillColor=none;align=left;verticalAlign=middle;spacingTop=-1;spacingLeft=3;spacingRight=3;rotatable=0;labelPosition=right;points=[];portConstraint=eastwest;strokeColor=inherit;" vertex="1" parent="hnI3a69rsxGzcbUu10C9-25">
          <mxGeometry y="100" width="240" height="8" as="geometry" />
        </mxCell>
        <mxCell id="hnI3a69rsxGzcbUu10C9-28" value="&lt;div&gt;+&amp;nbsp;Student(String, String, String)&lt;/div&gt;&lt;div&gt;+&amp;nbsp;getId()&lt;span style=&quot;background-color: initial;&quot;&gt;: String&lt;/span&gt;&lt;/div&gt;&lt;div&gt;+&amp;nbsp;setId(String)&lt;span style=&quot;background-color: initial;&quot;&gt;:&amp;nbsp;void&lt;/span&gt;&lt;/div&gt;&lt;div&gt;+&amp;nbsp;getName()&lt;span style=&quot;background-color: initial;&quot;&gt;: String&lt;/span&gt;&lt;/div&gt;&lt;div&gt;+&amp;nbsp;setName(String)&lt;span style=&quot;background-color: initial;&quot;&gt;:&amp;nbsp;void&lt;/span&gt;&lt;/div&gt;&lt;div&gt;+&amp;nbsp;getClassName()&lt;span style=&quot;background-color: initial;&quot;&gt;: String&lt;/span&gt;&lt;/div&gt;&lt;div&gt;+&amp;nbsp;setClassName(String)&lt;span style=&quot;background-color: initial;&quot;&gt;:&amp;nbsp;void&lt;/span&gt;&lt;/div&gt;&lt;div&gt;+&amp;nbsp;getSection()&lt;span style=&quot;background-color: initial;&quot;&gt;: String&lt;/span&gt;&lt;/div&gt;&lt;div&gt;&lt;span style=&quot;background-color: initial;&quot;&gt;+&amp;nbsp;&lt;/span&gt;&lt;span style=&quot;background-color: initial;&quot;&gt;&amp;nbsp;setSection(String): void&lt;/span&gt;&lt;/div&gt;" style="text;strokeColor=none;fillColor=none;align=left;verticalAlign=top;spacingLeft=4;spacingRight=4;overflow=hidden;rotatable=0;points=[[0,0.5],[1,0.5]];portConstraint=eastwest;whiteSpace=wrap;html=1;" vertex="1" parent="hnI3a69rsxGzcbUu10C9-25">
          <mxGeometry y="108" width="240" height="152" as="geometry" />
        </mxCell>
        <mxCell id="hnI3a69rsxGzcbUu10C9-41" value="Main" style="swimlane;fontStyle=1;align=center;verticalAlign=top;childLayout=stackLayout;horizontal=1;startSize=26;horizontalStack=0;resizeParent=1;resizeParentMax=0;resizeLast=0;collapsible=1;marginBottom=0;whiteSpace=wrap;html=1;" vertex="1" parent="1">
          <mxGeometry x="620" y="790" width="240" height="140" as="geometry" />
        </mxCell>
        <mxCell id="hnI3a69rsxGzcbUu10C9-42" value="&amp;nbsp; &amp;nbsp; &amp;nbsp; &amp;nbsp; &amp;nbsp; &amp;nbsp; &amp;nbsp; &amp;nbsp; &amp;nbsp; &amp;nbsp; &amp;nbsp; &amp;nbsp;&amp;nbsp;" style="text;strokeColor=none;fillColor=none;align=left;verticalAlign=top;spacingLeft=4;spacingRight=4;overflow=hidden;rotatable=0;points=[[0,0.5],[1,0.5]];portConstraint=eastwest;whiteSpace=wrap;html=1;" vertex="1" parent="hnI3a69rsxGzcbUu10C9-41">
          <mxGeometry y="26" width="240" height="26" as="geometry" />
        </mxCell>
        <mxCell id="hnI3a69rsxGzcbUu10C9-43" value="" style="line;strokeWidth=1;fillColor=none;align=left;verticalAlign=middle;spacingTop=-1;spacingLeft=3;spacingRight=3;rotatable=0;labelPosition=right;points=[];portConstraint=eastwest;strokeColor=inherit;" vertex="1" parent="hnI3a69rsxGzcbUu10C9-41">
          <mxGeometry y="52" width="240" height="8" as="geometry" />
        </mxCell>
        <mxCell id="hnI3a69rsxGzcbUu10C9-44" value="&lt;u&gt;+ main(String[] args): void&lt;/u&gt;" style="text;strokeColor=none;fillColor=none;align=left;verticalAlign=top;spacingLeft=4;spacingRight=4;overflow=hidden;rotatable=0;points=[[0,0.5],[1,0.5]];portConstraint=eastwest;whiteSpace=wrap;html=1;" vertex="1" parent="hnI3a69rsxGzcbUu10C9-41">
          <mxGeometry y="60" width="240" height="80" as="geometry" />
        </mxCell>
        <mxCell id="hnI3a69rsxGzcbUu10C9-45" value="&lt;div&gt;+&amp;nbsp;Student(String, String, String)&lt;/div&gt;&lt;div&gt;+&amp;nbsp;getId()&lt;span style=&quot;background-color: initial;&quot;&gt;: String&lt;/span&gt;&lt;/div&gt;&lt;div&gt;+&amp;nbsp;setId(String)&lt;span style=&quot;background-color: initial;&quot;&gt;:&amp;nbsp;void&lt;/span&gt;&lt;/div&gt;&lt;div&gt;+&amp;nbsp;getName()&lt;span style=&quot;background-color: initial;&quot;&gt;: String&lt;/span&gt;&lt;/div&gt;&lt;div&gt;+&amp;nbsp;setName(String)&lt;span style=&quot;background-color: initial;&quot;&gt;:&amp;nbsp;void&lt;/span&gt;&lt;/div&gt;&lt;div&gt;+&amp;nbsp;getClassName()&lt;span style=&quot;background-color: initial;&quot;&gt;: String&lt;/span&gt;&lt;/div&gt;&lt;div&gt;+&amp;nbsp;setClassName(String)&lt;span style=&quot;background-color: initial;&quot;&gt;:&amp;nbsp;void&lt;/span&gt;&lt;/div&gt;&lt;div&gt;+&amp;nbsp;getSection()&lt;span style=&quot;background-color: initial;&quot;&gt;: String&lt;/span&gt;&lt;/div&gt;&lt;div&gt;&lt;span style=&quot;background-color: initial;&quot;&gt;+&amp;nbsp;&lt;/span&gt;&lt;span style=&quot;background-color: initial;&quot;&gt;&amp;nbsp;setSection(String): void&lt;/span&gt;&lt;/div&gt;" style="text;strokeColor=none;fillColor=none;align=left;verticalAlign=top;spacingLeft=4;spacingRight=4;overflow=hidden;rotatable=0;points=[[0,0.5],[1,0.5]];portConstraint=eastwest;whiteSpace=wrap;html=1;" vertex="1" parent="1">
          <mxGeometry x="-230" y="250" width="240" height="152" as="geometry" />
        </mxCell>
        <mxCell id="hnI3a69rsxGzcbUu10C9-46" value="TransactionManager" style="swimlane;fontStyle=1;align=center;verticalAlign=top;childLayout=stackLayout;horizontal=1;startSize=26;horizontalStack=0;resizeParent=1;resizeParentMax=0;resizeLast=0;collapsible=1;marginBottom=0;whiteSpace=wrap;html=1;" vertex="1" parent="1">
          <mxGeometry x="50" y="502" width="240" height="140" as="geometry" />
        </mxCell>
        <mxCell id="hnI3a69rsxGzcbUu10C9-47" value="- transactions: List&amp;lt;String&amp;gt;" style="text;strokeColor=none;fillColor=none;align=left;verticalAlign=top;spacingLeft=4;spacingRight=4;overflow=hidden;rotatable=0;points=[[0,0.5],[1,0.5]];portConstraint=eastwest;whiteSpace=wrap;html=1;" vertex="1" parent="hnI3a69rsxGzcbUu10C9-46">
          <mxGeometry y="26" width="240" height="26" as="geometry" />
        </mxCell>
        <mxCell id="hnI3a69rsxGzcbUu10C9-48" value="" style="line;strokeWidth=1;fillColor=none;align=left;verticalAlign=middle;spacingTop=-1;spacingLeft=3;spacingRight=3;rotatable=0;labelPosition=right;points=[];portConstraint=eastwest;strokeColor=inherit;" vertex="1" parent="hnI3a69rsxGzcbUu10C9-46">
          <mxGeometry y="52" width="240" height="8" as="geometry" />
        </mxCell>
        <mxCell id="hnI3a69rsxGzcbUu10C9-49" value="&lt;div&gt;+&amp;nbsp;addTransaction(Scanner)&lt;span style=&quot;background-color: initial;&quot;&gt;: void&lt;/span&gt;&lt;/div&gt;&lt;div&gt;+&amp;nbsp;listTransactions()&lt;span style=&quot;background-color: initial;&quot;&gt;: void&lt;/span&gt;&lt;/div&gt;&lt;div&gt;+&amp;nbsp;updateTransaction(Scanner)&lt;span style=&quot;background-color: initial;&quot;&gt;: void&lt;/span&gt;&lt;/div&gt;&lt;div&gt;+&amp;nbsp;deleteTransaction(Scanner)&lt;span style=&quot;background-color: initial;&quot;&gt;: void&lt;/span&gt;&lt;/div&gt;" style="text;strokeColor=none;fillColor=none;align=left;verticalAlign=top;spacingLeft=4;spacingRight=4;overflow=hidden;rotatable=0;points=[[0,0.5],[1,0.5]];portConstraint=eastwest;whiteSpace=wrap;html=1;" vertex="1" parent="hnI3a69rsxGzcbUu10C9-46">
          <mxGeometry y="60" width="240" height="80" as="geometry" />
        </mxCell>
        <mxCell id="hnI3a69rsxGzcbUu10C9-50" value="TutorManager" style="swimlane;fontStyle=1;align=center;verticalAlign=top;childLayout=stackLayout;horizontal=1;startSize=26;horizontalStack=0;resizeParent=1;resizeParentMax=0;resizeLast=0;collapsible=1;marginBottom=0;whiteSpace=wrap;html=1;" vertex="1" parent="1">
          <mxGeometry x="50" y="670" width="240" height="140" as="geometry" />
        </mxCell>
        <mxCell id="hnI3a69rsxGzcbUu10C9-51" value="- tutors: List&amp;lt;String, double&amp;gt;" style="text;strokeColor=none;fillColor=none;align=left;verticalAlign=top;spacingLeft=4;spacingRight=4;overflow=hidden;rotatable=0;points=[[0,0.5],[1,0.5]];portConstraint=eastwest;whiteSpace=wrap;html=1;" vertex="1" parent="hnI3a69rsxGzcbUu10C9-50">
          <mxGeometry y="26" width="240" height="26" as="geometry" />
        </mxCell>
        <mxCell id="hnI3a69rsxGzcbUu10C9-52" value="" style="line;strokeWidth=1;fillColor=none;align=left;verticalAlign=middle;spacingTop=-1;spacingLeft=3;spacingRight=3;rotatable=0;labelPosition=right;points=[];portConstraint=eastwest;strokeColor=inherit;" vertex="1" parent="hnI3a69rsxGzcbUu10C9-50">
          <mxGeometry y="52" width="240" height="8" as="geometry" />
        </mxCell>
        <mxCell id="hnI3a69rsxGzcbUu10C9-53" value="&lt;div&gt;+&amp;nbsp;addTutor(Scanner)&lt;span style=&quot;background-color: initial;&quot;&gt;: void&lt;/span&gt;&lt;/div&gt;&lt;div&gt;+&amp;nbsp;listTutors()&lt;span style=&quot;background-color: initial;&quot;&gt;: void&lt;/span&gt;&lt;/div&gt;&lt;div&gt;+&amp;nbsp;update&lt;span style=&quot;background-color: initial;&quot;&gt;Tutor&lt;/span&gt;&lt;span style=&quot;background-color: initial;&quot;&gt;(Scanner)&lt;/span&gt;&lt;span style=&quot;background-color: initial;&quot;&gt;: void&lt;/span&gt;&lt;/div&gt;&lt;div&gt;+&amp;nbsp;delete&lt;span style=&quot;background-color: initial;&quot;&gt;Tutor&lt;/span&gt;&lt;span style=&quot;background-color: initial;&quot;&gt;(Scanner)&lt;/span&gt;&lt;span style=&quot;background-color: initial;&quot;&gt;: void&lt;/span&gt;&lt;/div&gt;" style="text;strokeColor=none;fillColor=none;align=left;verticalAlign=top;spacingLeft=4;spacingRight=4;overflow=hidden;rotatable=0;points=[[0,0.5],[1,0.5]];portConstraint=eastwest;whiteSpace=wrap;html=1;" vertex="1" parent="hnI3a69rsxGzcbUu10C9-50">
          <mxGeometry y="60" width="240" height="80" as="geometry" />
        </mxCell>
        <mxCell id="hnI3a69rsxGzcbUu10C9-54" value="User" style="swimlane;fontStyle=1;align=center;verticalAlign=top;childLayout=stackLayout;horizontal=1;startSize=26;horizontalStack=0;resizeParent=1;resizeParentMax=0;resizeLast=0;collapsible=1;marginBottom=0;whiteSpace=wrap;html=1;" vertex="1" parent="1">
          <mxGeometry x="60" y="830" width="240" height="200" as="geometry" />
        </mxCell>
        <mxCell id="hnI3a69rsxGzcbUu10C9-55" value="&lt;div&gt;- useranme:&lt;span style=&quot;background-color: initial;&quot;&gt;&amp;nbsp;&lt;/span&gt;&lt;span style=&quot;background-color: initial;&quot;&gt;String&lt;/span&gt;&lt;span style=&quot;background-color: initial;&quot;&gt;&amp;nbsp;&lt;/span&gt;&lt;/div&gt;&lt;div&gt;- password:&lt;span style=&quot;background-color: initial;&quot;&gt;&amp;nbsp;&lt;/span&gt;&lt;span style=&quot;background-color: initial;&quot;&gt;String&lt;/span&gt;&lt;span style=&quot;background-color: initial;&quot;&gt;&amp;nbsp;&lt;/span&gt;&lt;/div&gt;&lt;div&gt;- email:&lt;span style=&quot;background-color: initial;&quot;&gt;&amp;nbsp;&lt;/span&gt;&lt;span style=&quot;background-color: initial;&quot;&gt;String&lt;/span&gt;&lt;span style=&quot;background-color: initial;&quot;&gt;&amp;nbsp;&lt;/span&gt;&lt;/div&gt;&lt;div&gt;&lt;br&gt;&lt;/div&gt;" style="text;strokeColor=none;fillColor=none;align=left;verticalAlign=top;spacingLeft=4;spacingRight=4;overflow=hidden;rotatable=0;points=[[0,0.5],[1,0.5]];portConstraint=eastwest;whiteSpace=wrap;html=1;" vertex="1" parent="hnI3a69rsxGzcbUu10C9-54">
          <mxGeometry y="26" width="240" height="54" as="geometry" />
        </mxCell>
        <mxCell id="hnI3a69rsxGzcbUu10C9-56" value="" style="line;strokeWidth=1;fillColor=none;align=left;verticalAlign=middle;spacingTop=-1;spacingLeft=3;spacingRight=3;rotatable=0;labelPosition=right;points=[];portConstraint=eastwest;strokeColor=inherit;" vertex="1" parent="hnI3a69rsxGzcbUu10C9-54">
          <mxGeometry y="80" width="240" height="8" as="geometry" />
        </mxCell>
        <mxCell id="hnI3a69rsxGzcbUu10C9-57" value="&lt;div&gt;+ User(String, String, String)&lt;/div&gt;&lt;div&gt;+&amp;nbsp;getUsername()&lt;span style=&quot;background-color: initial;&quot;&gt;: String&lt;/span&gt;&lt;/div&gt;&lt;div&gt;+&amp;nbsp;setUsername()&lt;span style=&quot;background-color: initial;&quot;&gt;:&amp;nbsp;void&lt;/span&gt;&lt;/div&gt;&lt;div&gt;+&amp;nbsp;getPassword()&lt;span style=&quot;background-color: initial;&quot;&gt;: String&lt;/span&gt;&lt;/div&gt;&lt;div&gt;+&amp;nbsp;setPassword(String)&lt;span style=&quot;background-color: initial;&quot;&gt;:&amp;nbsp;void&lt;/span&gt;&lt;/div&gt;&lt;div&gt;+ getEmail()()&lt;span style=&quot;background-color: initial;&quot;&gt;: String&lt;/span&gt;&lt;/div&gt;&lt;div&gt;+&amp;nbsp;setEmail(String)&lt;span style=&quot;background-color: initial;&quot;&gt;:&amp;nbsp;void&lt;/span&gt;&lt;/div&gt;" style="text;strokeColor=none;fillColor=none;align=left;verticalAlign=top;spacingLeft=4;spacingRight=4;overflow=hidden;rotatable=0;points=[[0,0.5],[1,0.5]];portConstraint=eastwest;whiteSpace=wrap;html=1;" vertex="1" parent="hnI3a69rsxGzcbUu10C9-54">
          <mxGeometry y="88" width="240" height="112" as="geometry" />
        </mxCell>
        <mxCell id="hnI3a69rsxGzcbUu10C9-58" value="UserManager" style="swimlane;fontStyle=1;align=center;verticalAlign=top;childLayout=stackLayout;horizontal=1;startSize=26;horizontalStack=0;resizeParent=1;resizeParentMax=0;resizeLast=0;collapsible=1;marginBottom=0;whiteSpace=wrap;html=1;" vertex="1" parent="1">
          <mxGeometry x="360" y="1060" width="350" height="210" as="geometry" />
        </mxCell>
        <mxCell id="hnI3a69rsxGzcbUu10C9-59" value="- users: List&amp;lt;String, User&amp;gt;&lt;div&gt;- admins: List&amp;lt;String, User&amp;gt;&lt;br&gt;&lt;/div&gt;" style="text;strokeColor=none;fillColor=none;align=left;verticalAlign=top;spacingLeft=4;spacingRight=4;overflow=hidden;rotatable=0;points=[[0,0.5],[1,0.5]];portConstraint=eastwest;whiteSpace=wrap;html=1;" vertex="1" parent="hnI3a69rsxGzcbUu10C9-58">
          <mxGeometry y="26" width="350" height="44" as="geometry" />
        </mxCell>
        <mxCell id="hnI3a69rsxGzcbUu10C9-60" value="" style="line;strokeWidth=1;fillColor=none;align=left;verticalAlign=middle;spacingTop=-1;spacingLeft=3;spacingRight=3;rotatable=0;labelPosition=right;points=[];portConstraint=eastwest;strokeColor=inherit;" vertex="1" parent="hnI3a69rsxGzcbUu10C9-58">
          <mxGeometry y="70" width="350" height="8" as="geometry" />
        </mxCell>
        <mxCell id="hnI3a69rsxGzcbUu10C9-61" value="&lt;div&gt;+&amp;nbsp;registerUser(String, String, String):&amp;nbsp;boolean&lt;/div&gt;&lt;div&gt;+&amp;nbsp;registerAdmin&lt;span style=&quot;background-color: initial;&quot;&gt;(String, String, String)&lt;/span&gt;&lt;span style=&quot;background-color: initial;&quot;&gt;:&amp;nbsp;boolean&lt;/span&gt;&lt;/div&gt;&lt;div&gt;&lt;span style=&quot;background-color: initial;&quot;&gt;+&amp;nbsp;&lt;/span&gt;&lt;span style=&quot;background-color: initial;&quot;&gt;authenticateUser(String, String)&lt;/span&gt;&lt;span style=&quot;background-color: initial;&quot;&gt;:&amp;nbsp;boolean&lt;/span&gt;&lt;/div&gt;&lt;div&gt;&lt;span style=&quot;background-color: initial;&quot;&gt;+&amp;nbsp;&lt;/span&gt;&lt;span style=&quot;background-color: initial;&quot;&gt;authenticateAdmin&lt;/span&gt;&lt;span style=&quot;background-color: initial;&quot;&gt;(String, String)&lt;/span&gt;&lt;span style=&quot;background-color: initial;&quot;&gt;:&amp;nbsp;boolean&lt;/span&gt;&lt;/div&gt;&lt;div&gt;&lt;span style=&quot;background-color: initial;&quot;&gt;+&amp;nbsp;&lt;/span&gt;&lt;span style=&quot;background-color: initial;&quot;&gt;getUser(String)&lt;/span&gt;&lt;span style=&quot;background-color: initial;&quot;&gt;: User&lt;/span&gt;&lt;/div&gt;&lt;div&gt;&lt;span style=&quot;background-color: initial;&quot;&gt;+&amp;nbsp;&lt;/span&gt;&lt;span style=&quot;background-color: initial;&quot;&gt;getAdmin(String)&lt;/span&gt;&lt;span style=&quot;background-color: initial;&quot;&gt;: User&lt;/span&gt;&lt;/div&gt;&lt;div&gt;&lt;span style=&quot;background-color: initial;&quot;&gt;+&amp;nbsp;&lt;/span&gt;&lt;span style=&quot;background-color: initial;&quot;&gt;upgradeProfile(String, String, String, String, String): void&lt;/span&gt;&lt;/div&gt;&lt;div&gt;&lt;span style=&quot;background-color: initial;&quot;&gt;+&amp;nbsp;&lt;/span&gt;&lt;span style=&quot;background-color: initial;&quot;&gt;viewStudentInformation(): void&lt;/span&gt;&lt;/div&gt;&lt;div&gt;&lt;br&gt;&lt;/div&gt;" style="text;strokeColor=none;fillColor=none;align=left;verticalAlign=top;spacingLeft=4;spacingRight=4;overflow=hidden;rotatable=0;points=[[0,0.5],[1,0.5]];portConstraint=eastwest;whiteSpace=wrap;html=1;" vertex="1" parent="hnI3a69rsxGzcbUu10C9-58">
          <mxGeometry y="78" width="350" height="132" as="geometry" />
        </mxCell>
      </root>
    </mxGraphModel>
  </diagram>
</mxfile>
